<svg width="70" height="30" viewBox="0 0 70 30" fill="none" xmlns="http://www.w3.org/2000/svg">
<g clip-path="url(#clip0_69_2)">
<path d="M16.6158 0C13.8821 0 11.2604 1.21005 9.32741 3.36396L3.01894 10.3934C1.08594 12.5473 0 15.4686 0 18.5147C0 24.8579 4.61474 30 10.3073 30C13.041 30 15.6627 28.7899 17.5957 26.636L21.9593 21.7737C21.9594 21.7738 21.9593 21.7736 21.9593 21.7737L34.6733 7.6066C35.5965 6.57791 36.8486 6 38.1542 6C40.34 6 42.1931 7.58741 42.8356 9.78407L46.8481 5.31296C45.0176 2.11834 41.808 0 38.1542 0C35.4205 0 32.7989 1.21005 30.8659 3.36396L13.7882 22.3934C12.865 23.4221 11.6129 24 10.3073 24C7.58857 24 5.38462 21.5442 5.38462 18.5147C5.38462 17.0599 5.90325 15.6647 6.82644 14.636L13.1349 7.6066C14.0581 6.57791 15.3102 6 16.6158 6C18.8016 6 20.6547 7.58748 21.2971 9.78421L25.3098 5.31307C23.4793 2.1184 20.2696 0 16.6158 0Z" fill="#F8F4F3"/>
<path d="M35.3267 22.3934C34.4035 23.4221 33.1514 24 31.8458 24C29.6602 24 27.8073 22.413 27.1647 20.2167L23.1522 24.6877C24.9828 27.8819 28.1923 30 31.8458 30C34.5795 30 37.2011 28.7899 39.1341 26.636L56.2118 7.6066C57.135 6.57791 58.3871 6 59.6927 6C62.4115 6 64.6154 8.45584 64.6154 11.4853C64.6154 12.9401 64.0967 14.3353 63.1736 15.364L56.8651 22.3934C55.9419 23.4221 54.6898 24 53.3842 24C51.1985 24 49.3455 22.4127 48.7029 20.2162L44.6905 24.6873C46.521 27.8818 49.7306 30 53.3842 30C56.1179 30 58.7396 28.7899 60.6726 26.636L66.981 19.6066C68.914 17.4527 70 14.5314 70 11.4853C70 5.14214 65.3853 0 59.6927 0C56.959 0 54.3373 1.21005 52.4043 3.36396L35.3267 22.3934Z" fill="#F8F4F3"/>
</g>
<defs>
<clipPath id="clip0_69_2">
<rect width="70" height="30" fill="white"/>
</clipPath>
</defs>
</svg>
